<svg width="126" height="18" viewBox="0 0 126 18" fill="none" xmlns="http://www.w3.org/2000/svg">
<g clip-path="url(#clip0_52_21645)">
<path d="M59.1507 16.2744C57.1558 16.2744 55.535 15.6444 54.2947 14.3845C53.0545 13.1245 52.4311 11.4512 52.4311 9.35786V8.9707C52.4311 7.57296 52.7001 6.31959 53.2448 5.21714C53.7829 4.1147 54.5441 3.25506 55.5219 2.64478C56.4996 2.02793 57.5889 1.72607 58.7898 1.72607C60.6994 1.72607 62.1759 2.33636 63.2193 3.55692C64.2627 4.77748 64.7811 6.50333 64.7811 8.73446V10.0075H55.6137C55.7056 11.169 56.0928 12.0812 56.7752 12.7571C57.4511 13.433 58.3108 13.7676 59.3345 13.7676C60.7782 13.7676 61.9528 13.1836 62.8649 12.0155L64.5645 13.6364C64.0002 14.4763 63.2521 15.126 62.3137 15.5854C61.3753 16.0447 60.3188 16.2744 59.1507 16.2744ZM58.7767 4.25251C57.9105 4.25251 57.2149 4.55436 56.6834 5.15808C56.1518 5.7618 55.8106 6.60832 55.6662 7.68451H61.6706V7.44828C61.5984 6.39177 61.3228 5.59775 60.8307 5.05309C60.3319 4.52812 59.6495 4.25251 58.7767 4.25251Z" fill="white"/>
<path d="M74.5727 4.86251C74.1593 4.79033 73.7327 4.75752 73.2865 4.75752C71.8428 4.75752 70.8716 5.30874 70.3663 6.41774V16.0182H67.2165V1.98172H70.2285L70.3073 3.55008C71.0685 2.32952 72.125 1.71924 73.4702 1.71924C73.9165 1.71924 74.2905 1.7783 74.5858 1.90298L74.5727 4.86251Z" fill="white"/>
<path d="M84.6898 16.0182C84.552 15.7491 84.4273 15.316 84.3289 14.7057C83.3248 15.7491 82.0977 16.2741 80.6475 16.2741C79.2366 16.2741 78.0883 15.8738 77.1958 15.0667C76.3033 14.2595 75.8571 13.2686 75.8571 12.0809C75.8571 10.5847 76.4149 9.43634 77.5239 8.63575C78.6329 7.83517 80.221 7.43488 82.288 7.43488H84.2173V6.51618C84.2173 5.78778 84.0139 5.21031 83.607 4.77064C83.2002 4.33098 82.5833 4.11443 81.7499 4.11443C81.0347 4.11443 80.4441 4.2916 79.9847 4.65252C79.5254 5.01344 79.2957 5.46623 79.2957 6.02401H76.1459C76.1459 5.25624 76.4018 4.5344 76.9136 3.86506C77.4255 3.19572 78.1145 2.67075 78.9938 2.29015C79.8732 1.90954 80.8509 1.71924 81.9337 1.71924C83.5742 1.71924 84.8866 2.13265 85.8644 2.95949C86.8422 3.78632 87.3409 4.94782 87.3671 6.44399V12.7699C87.3671 14.0298 87.5443 15.0404 87.8987 15.7951V16.0182H84.6898ZM81.2315 13.7477C81.8549 13.7477 82.439 13.5967 82.9902 13.2949C83.5414 12.993 83.9548 12.5862 84.2304 12.0743V9.42977H82.5308C81.3628 9.42977 80.4834 9.6332 79.8994 10.0401C79.3088 10.4469 79.0201 11.0244 79.0201 11.7659C79.0201 12.3696 79.2235 12.8552 79.6238 13.2096C80.0175 13.5705 80.5556 13.7477 81.2315 13.7477Z" fill="white"/>
<path d="M98.544 12.2054C98.544 11.641 98.3143 11.2145 97.8484 10.9192C97.3825 10.6239 96.6213 10.3679 95.5451 10.1383C94.4755 9.91516 93.5765 9.62642 92.8612 9.28519C91.2863 8.52398 90.4988 7.42154 90.4988 5.97786C90.4988 4.77043 91.0107 3.75329 92.0278 2.94615C93.0449 2.13244 94.3442 1.72559 95.9192 1.72559C97.5991 1.72559 98.9509 2.139 99.9877 2.9724C101.018 3.79923 101.536 4.88198 101.536 6.20098H98.3865C98.3865 5.59726 98.1634 5.09197 97.7106 4.69168C97.2578 4.29139 96.6672 4.08796 95.9192 4.08796C95.2301 4.08796 94.6658 4.24545 94.2261 4.567C93.7865 4.88855 93.5699 5.31509 93.5699 5.85318C93.5699 6.33878 93.7733 6.71283 94.1802 6.98188C94.587 7.25092 95.4073 7.51997 96.6475 7.79558C97.8812 8.07119 98.8524 8.39274 99.5611 8.76678C100.263 9.14083 100.788 9.59361 101.13 10.1251C101.471 10.6501 101.641 11.2932 101.641 12.0479C101.641 13.3078 101.116 14.3315 100.073 15.1124C99.0296 15.8933 97.6581 16.287 95.9585 16.287C94.8101 16.287 93.7865 16.077 92.8874 15.6636C91.9884 15.2502 91.2863 14.6793 90.7875 13.9509C90.2888 13.2225 90.0329 12.4416 90.0329 11.6016H93.0909C93.1368 12.3432 93.4124 12.9206 93.9308 13.3209C94.4492 13.7212 95.1383 13.9246 95.9913 13.9246C96.8182 13.9246 97.4547 13.7671 97.8878 13.4522C98.3275 13.1306 98.544 12.7172 98.544 12.2054Z" fill="white"/>
<path d="M110.565 16.2739C108.57 16.2739 106.949 15.6439 105.709 14.384C104.469 13.1241 103.846 11.4507 103.846 9.35738V8.97021C103.846 7.57247 104.115 6.3191 104.659 5.21665C105.197 4.11421 105.959 3.25457 106.936 2.64429C107.914 2.02745 109.003 1.72559 110.204 1.72559C112.114 1.72559 113.59 2.33587 114.634 3.55643C115.677 4.77699 116.196 6.50284 116.196 8.73397V10.007H107.028C107.12 11.1685 107.507 12.0807 108.19 12.7566C108.866 13.4325 109.725 13.7671 110.749 13.7671C112.193 13.7671 113.367 13.1831 114.279 12.015L115.979 13.6359C115.415 14.4759 114.667 15.1255 113.728 15.5849C112.79 16.0442 111.733 16.2739 110.565 16.2739ZM110.191 4.25202C109.325 4.25202 108.629 4.55388 108.098 5.15759C107.566 5.76131 107.225 6.60783 107.081 7.68403H113.085V7.44779C113.013 6.39128 112.737 5.59726 112.245 5.0526C111.746 4.52763 111.064 4.25202 110.191 4.25202Z" fill="white"/>
<path d="M125.987 4.86251C125.573 4.79033 125.147 4.75752 124.701 4.75752C123.257 4.75752 122.286 5.30874 121.78 6.41774V16.0182H118.631V1.98172H121.643L121.721 3.55008C122.483 2.32952 123.539 1.71924 124.884 1.71924C125.331 1.71924 125.705 1.7783 126 1.90298L125.987 4.86251Z" fill="white"/>
<path d="M21.9373 18H1.36497C0.308458 18 -0.347757 16.4973 0.196902 15.3226L6.89687 0.853081C7.13967 0.321546 7.58589 0 8.06493 0H21.9439V18H21.9373Z" fill="#EC2C40"/>
<path d="M24.2997 0H44.8786C45.9351 0 46.5913 1.50273 46.0467 2.67736L39.3467 17.1469C39.1039 17.6785 38.6577 18 38.1786 18H24.2997V0Z" fill="#00A9E5"/>
</g>
<defs>
<clipPath id="clip0_52_21645">
<rect width="126" height="18" fill="white"/>
</clipPath>
</defs>
</svg>
